<svg width="244" height="206" viewBox="0 0 244 206" fill="none" xmlns="http://www.w3.org/2000/svg">
<path d="M95.6343 163.5C139.817 163.5 175.634 127.683 175.634 83.5C175.634 39.3172 139.817 3.5 95.6343 3.5C51.4515 3.5 15.6343 39.3172 15.6343 83.5C15.6343 127.683 51.4515 163.5 95.6343 163.5Z" fill="#DC286E"/>
<path d="M95.6343 166.5C141.474 166.5 178.634 129.34 178.634 83.5C178.634 37.6604 141.474 0.5 95.6343 0.5C49.7946 0.5 12.6343 37.6604 12.6343 83.5C12.6343 129.34 49.7946 166.5 95.6343 166.5Z" fill="#DC286E"/>
<path d="M134.044 9.5C140.101 21.0539 143.531 34.1924 143.531 48.1533C143.531 94.128 106.262 131.397 60.2875 131.397C46.3467 131.397 33.1881 127.967 21.6343 121.909C35.5551 148.427 63.3565 166.5 95.3904 166.5C141.365 166.5 178.634 129.231 178.634 83.2561C178.634 51.2222 160.541 23.4208 134.044 9.5Z" fill="#C8195A"/>
<path d="M95.6343 154.5C134.846 154.5 166.634 122.712 166.634 83.5C166.634 44.2878 134.846 12.5 95.6343 12.5C56.4221 12.5 24.6343 44.2878 24.6343 83.5C24.6343 122.712 56.4221 154.5 95.6343 154.5Z" fill="#DEF5F5"/>
<path d="M141.435 29.5C142.911 35.6852 143.689 42.1297 143.689 48.7538C143.689 94.484 106.618 131.555 60.8881 131.555C54.264 131.555 47.8194 130.777 41.6343 129.3C54.6231 144.704 74.0764 154.5 95.8043 154.5C134.93 154.5 166.634 122.796 166.634 83.67C166.634 61.9421 156.838 42.4888 141.435 29.5Z" fill="#C8EBEB"/>
<path d="M95.6343 148.5C131.533 148.5 160.634 119.399 160.634 83.5C160.634 47.6015 131.533 18.5 95.6343 18.5C59.7358 18.5 30.6343 47.6015 30.6343 83.5C30.6343 119.399 59.7358 148.5 95.6343 148.5Z" fill="#F0FFFF"/>
<path d="M143.178 38.5C143.517 41.5969 143.696 44.7541 143.696 47.9516C143.696 94.043 106.672 131.407 60.9999 131.407C57.8315 131.407 54.703 131.226 51.6343 130.884C63.2118 141.824 78.7747 148.5 95.8719 148.5C131.641 148.5 160.634 119.24 160.634 83.1435C160.634 65.8894 153.999 50.1837 143.178 38.5Z" fill="#DEF5F5"/>
<path d="M94.3624 79.1986L79.3955 105.111L84.5802 108.103L99.5471 82.1908L94.3624 79.1986Z" fill="#1B2E69"/>
<path d="M98.6343 40.5H92.6343V86.5H98.6343V40.5Z" fill="#1B2E69"/>
<path d="M95.6343 91.5C100.053 91.5 103.634 87.9183 103.634 83.5C103.634 79.0817 100.053 75.5 95.6343 75.5C91.216 75.5 87.6343 79.0817 87.6343 83.5C87.6343 87.9183 91.216 91.5 95.6343 91.5Z" fill="#2F5BC8"/>
<path d="M95.6343 33.5C97.8434 33.5 99.6343 31.7091 99.6343 29.5C99.6343 27.2909 97.8434 25.5 95.6343 25.5C93.4251 25.5 91.6343 27.2909 91.6343 29.5C91.6343 31.7091 93.4251 33.5 95.6343 33.5Z" fill="#1B2E69"/>
<path d="M95.6343 141.5C97.8434 141.5 99.6343 139.709 99.6343 137.5C99.6343 135.291 97.8434 133.5 95.6343 133.5C93.4251 133.5 91.6343 135.291 91.6343 137.5C91.6343 139.709 93.4251 141.5 95.6343 141.5Z" fill="#1B2E69"/>
<path d="M149.634 87.5C151.843 87.5 153.634 85.7091 153.634 83.5C153.634 81.2909 151.843 79.5 149.634 79.5C147.425 79.5 145.634 81.2909 145.634 83.5C145.634 85.7091 147.425 87.5 149.634 87.5Z" fill="#1B2E69"/>
<path d="M41.6343 87.5C43.8434 87.5 45.6343 85.7091 45.6343 83.5C45.6343 81.2909 43.8434 79.5 41.6343 79.5C39.4251 79.5 37.6343 81.2909 37.6343 83.5C37.6343 85.7091 39.4251 87.5 41.6343 87.5Z" fill="#1B2E69"/>
<path d="M139.633 113.962C137.711 112.861 137.071 110.398 138.172 108.495C139.273 106.593 141.734 105.932 143.636 107.033C145.557 108.135 146.198 110.598 145.097 112.5C143.996 114.423 141.534 115.064 139.633 113.962Z" fill="#1B2E69"/>
<path d="M46.6328 59.9666C44.7114 58.8652 44.0709 56.4021 45.1717 54.4996C46.2725 52.5772 48.7344 51.9364 50.6357 53.0378C52.5571 54.1392 53.1976 56.6023 52.0968 58.5047C50.996 60.4072 48.5342 61.068 46.6328 59.9666Z" fill="#1B2E69"/>
<path d="M65.1717 127.499C66.2726 125.577 68.7344 124.937 70.6357 126.037C72.5571 127.138 73.1976 129.6 72.0968 131.501C70.996 133.423 68.5342 134.063 66.6328 132.963C64.7114 131.862 64.0709 129.4 65.1717 127.499Z" fill="#1B2E69"/>
<path d="M119.172 34.4985C120.273 32.5771 122.734 31.9367 124.636 33.0375C126.557 34.1383 127.198 36.6001 126.097 38.5015C124.996 40.4229 122.534 41.0633 120.633 39.9625C118.711 38.8617 118.071 36.3999 119.172 34.4985Z" fill="#1B2E69"/>
<path d="M50.6357 113.962C52.5571 112.861 53.1976 110.398 52.0968 108.495C50.996 106.593 48.5342 105.932 46.6328 107.033C44.7114 108.135 44.0709 110.598 45.1717 112.5C46.2725 114.423 48.7344 115.064 50.6357 113.962Z" fill="#1B2E69"/>
<path d="M143.636 59.9666C145.557 58.8652 146.198 56.4021 145.097 54.4996C143.996 52.5772 141.534 51.9364 139.633 53.0378C137.711 54.1392 137.071 56.6023 138.172 58.5047C139.273 60.4072 141.734 61.068 143.636 59.9666Z" fill="#1B2E69"/>
<path d="M126.097 127.499C124.996 125.577 122.534 124.937 120.633 126.037C118.711 127.138 118.071 129.6 119.172 131.501C120.273 133.423 122.734 134.063 124.636 132.963C126.557 131.862 127.198 129.4 126.097 127.499Z" fill="#1B2E69"/>
<path d="M72.0968 34.4985C70.996 32.5771 68.5342 31.9367 66.6328 33.0375C64.7114 34.1383 64.0709 36.6001 65.1717 38.5015C66.2726 40.4229 68.7344 41.0633 70.6357 39.9625C72.5571 38.8617 73.1976 36.3999 72.0968 34.4985Z" fill="#1B2E69"/>
<path d="M208.049 51.9542C208.049 34.3944 193.75 20.1016 176.183 20.1016C158.616 20.1016 144.317 34.3944 144.317 51.9542C144.317 58.7984 146.458 65.3159 150.511 70.8044C156.459 78.8737 159.09 89.4095 157.897 100.468L150.576 168.747H201.79L194.469 100.468C193.276 89.3932 195.907 78.8573 201.855 70.8044C205.908 65.3159 208.049 58.7984 208.049 51.9542Z" fill="#314898"/>
<path d="M201.855 70.8046C205.908 65.3161 208.049 58.7986 208.049 51.9544C208.049 36.6324 197.165 23.7934 182.719 20.7715C168.274 23.7934 157.39 36.6324 157.39 51.9544C157.39 58.7986 159.531 65.3161 163.584 70.8046C169.532 78.8739 172.163 89.4097 170.97 100.468L163.649 168.747H201.79L194.469 100.468C193.276 89.3934 195.907 78.8575 201.855 70.8046Z" fill="#253A84"/>
<path d="M237.464 205.5H114.903C113.105 205.5 111.634 204.03 111.634 202.233V192.432H240.732V202.233C240.732 204.03 239.261 205.5 237.464 205.5Z" fill="#253A84"/>
<path d="M237.463 205.5H124.707C122.91 205.5 121.439 204.03 121.439 202.233V192.432H240.732V202.233C240.732 204.03 239.261 205.5 237.463 205.5Z" fill="#1B2E69"/>
<path d="M114.902 166.297H237.463C241.075 166.297 244 169.221 244 172.831V192.432H108.366V172.831C108.366 169.221 111.291 166.297 114.902 166.297Z" fill="#E44E91"/>
<path d="M118.171 179.364V192.432H244V172.831H124.707C121.096 172.831 118.171 175.754 118.171 179.364Z" fill="#DC286E"/>
</svg>
